<svg xmlns="http://www.w3.org/2000/svg" xmlns:xlink="http://www.w3.org/1999/xlink" xmlns:sketch="http://www.bohemiancoding.com/sketch/ns" width="180px" height="47px" viewBox="0 0 180 47"><title>Logo</title><desc>Created with Sketch.</desc><defs><path id="path-1" d="M0,0.464771584 L179.750819,0.464771584 L179.750819,46.5966369 L0,46.5966369 L0,0.464771584 Z"></path><path id="path-3" d="M0,0.464771584 L179.750819,0.464771584 L179.750819,46.5966369 L0,46.5966369 L0,0.464771584 Z"></path><path id="path-5" d="M0,0.464771584 L179.750819,0.464771584 L179.750819,46.5966369 L0,46.5966369 L0,0.464771584 Z"></path></defs><g id="Page-1" stroke="none" stroke-width="1" fill="none" fill-rule="evenodd" sketch:type="MSPage"><g id="Soporte-t&#xE9;cnico-(Login)" sketch:type="MSArtboardGroup" transform="translate(-455.000000, -437.000000)"><g id="Group" sketch:type="MSLayerGroup" transform="translate(363.000000, 352.000000)"><g id="Logo" transform="translate(92.000000, 85.000000)"><path d="M44.9034418,23.5899656 L44.9034418,23.5314211 C44.9034418,17.4774427 49.6465446,12.7305596 56.0801163,12.7305596 C59.7272794,12.7305596 62.305961,13.8584372 64.500228,15.7569515 L61.1204837,19.8228067 C59.6377418,18.5754506 58.1561938,17.8633584 56.1099622,17.8633584 C53.1158263,17.8633584 50.8033698,20.3855507 50.8033698,23.560096 L50.8033698,23.6198353 C50.8033698,26.9724035 53.1456722,29.3763121 56.4358789,29.3763121 C57.8302771,29.3763121 58.8963709,29.0788105 59.7571252,28.5148717 L59.7571252,25.9938742 L55.6658559,25.9938742 L55.6658559,21.7798655 L65.2117531,21.7798655 L65.2117531,31.1266729 C63.0174861,32.9367731 59.9648524,34.3310878 56.1994997,34.3310878 C49.7360821,34.3310878 44.9034418,29.8805116 44.9034418,23.5899656" id="Fill-1" fill="#221F20" sketch:type="MSShapeGroup"></path><path d="M67.4324038,25.9632877 L67.4324038,25.9047432 C67.4324038,21.2152098 70.7823022,17.5065955 75.5254049,17.5065955 C81.0707641,17.5065955 83.6195999,21.5712559 83.6195999,26.2894641 C83.6195999,26.6455102 83.6195999,27.0612956 83.589754,27.4460165 L72.8583796,27.4460165 C73.3024859,29.1975722 74.5775007,30.0876874 76.3264676,30.0876874 C77.661174,30.0876874 78.7284617,29.5834879 79.8840931,28.4556103 L82.9976123,31.0363472 C81.4551787,32.9969903 79.2322597,34.3016961 76.0303967,34.3016961 C70.9900293,34.3016961 67.4324038,30.947933 67.4324038,25.9632877 L67.4324038,25.9632877 Z M78.3428533,24.5689729 C78.1351262,22.7875476 77.0976844,21.6608649 75.5564446,21.6608649 C74.0737027,21.6608649 73.0649129,22.8186121 72.7688421,24.5689729 L78.3428533,24.5689729 Z" id="Fill-3" fill="#221F20" sketch:type="MSShapeGroup"></path><path d="M84.8036445,31.8975486 L86.9083739,28.4876306 C88.7468784,29.7027275 90.7620703,30.3252108 92.4226935,30.3252108 C93.4016374,30.3252108 93.8457437,30.0277092 93.8457437,29.4649652 L93.8457437,29.4052259 C93.8457437,28.7815478 92.9563373,28.5151107 91.2658683,28.0407808 C88.095045,27.20921 85.5736674,26.1410718 85.5736674,22.9067872 L85.5736674,22.8482427 C85.5736674,19.4359352 88.3015783,17.5374209 92.0072392,17.5374209 C94.3495416,17.5374209 96.7813816,18.2196435 98.6186923,19.4060655 L96.6918441,22.9665265 C95.0312209,22.0465416 93.2237561,21.4837976 91.9487413,21.4837976 C91.087987,21.4837976 90.6438807,21.8099741 90.6438807,22.2556291 L90.6438807,22.3141736 C90.6438807,22.9366569 91.5631329,23.2341585 93.253602,23.738358 C96.4256191,24.6284732 98.9458028,25.7252864 98.9458028,28.8424819 L98.9458028,28.9010264 C98.9458028,32.4316177 96.3062357,34.2715875 92.3928476,34.2715875 C89.6947826,34.2715875 87.0277573,33.499756 84.8036445,31.8975486" id="Fill-5" fill="#221F20" sketch:type="MSShapeGroup"></path><path d="M100.602725,25.9632877 L100.602725,25.9047432 C100.602725,21.364558 104.130505,17.5364651 109.200718,17.5364651 C112.490925,17.5364651 114.686386,18.9618443 116.049744,21.1267957 L112.2247,23.9751645 C111.454677,22.9070262 110.593922,22.2833481 109.231758,22.2833481 C107.423099,22.2833481 106.088393,23.8867504 106.088393,25.8450039 L106.088393,25.9047432 C106.088393,27.9812805 107.392059,29.5536183 109.289062,29.5536183 C110.624962,29.5536183 111.483329,28.9299402 112.372735,27.8916716 L116.139282,30.6217566 C114.655346,32.8177724 112.520771,34.3016961 108.992991,34.3016961 C104.160351,34.3016961 100.602725,30.5034728 100.602725,25.9632877" id="Fill-7" fill="#221F20" sketch:type="MSShapeGroup"></path><path d="M117.322132,29.3165728 L117.322132,29.2568335 C117.322132,25.9341349 119.841122,24.2136437 123.607669,24.2136437 C125.089217,24.2136437 126.543307,24.5099505 127.460171,24.8373217 L127.460171,24.568495 C127.460171,22.9077431 126.423923,21.9590833 124.259502,21.9590833 C122.570227,21.9590833 121.265366,22.284065 119.841122,22.8480038 L118.685491,18.8729522 C120.494149,18.1309904 122.420998,17.6244013 125.17756,17.6244013 C128.053507,17.6244013 130.011395,18.3090134 131.285216,19.5838496 C132.501732,20.7714665 133.00553,22.4334132 133.00553,24.6879736 L133.00553,33.9153024 L127.432713,33.9153024 L127.432713,32.2545505 C126.334386,33.4708422 124.821798,34.2701538 122.718262,34.2701538 C119.664435,34.2701538 117.322132,32.5209877 117.322132,29.3165728 M127.521057,28.0990863 L127.521057,27.3571245 C126.956373,27.120557 126.155311,26.9425339 125.325596,26.9425339 C123.696012,26.9425339 122.748108,27.744235 122.748108,28.9306571 L122.748108,28.9903964 C122.748108,30.0884043 123.576629,30.7395624 124.733454,30.7395624 C126.364232,30.7395624 127.521057,29.7012938 127.521057,28.0990863" id="Fill-9" fill="#221F20" sketch:type="MSShapeGroup"></path><path d="M134.66305,31.8975486 L136.767779,28.4876306 C138.606284,29.7027275 140.621475,30.3252108 142.282099,30.3252108 C143.261043,30.3252108 143.705149,30.0277092 143.705149,29.4649652 L143.705149,29.4052259 C143.705149,28.7815478 142.815742,28.5151107 141.125273,28.0407808 C137.95445,27.20921 135.433073,26.1410718 135.433073,22.9067872 L135.433073,22.8482427 C135.433073,19.4359352 138.160983,17.5374209 141.866644,17.5374209 C144.208947,17.5374209 146.640787,18.2196435 148.478097,19.4060655 L146.551249,22.9665265 C144.889432,22.0465416 143.083161,21.4837976 141.806953,21.4837976 C140.947392,21.4837976 140.503286,21.8099741 140.503286,22.2556291 L140.503286,22.3141736 C140.503286,22.9366569 141.422538,23.2341585 143.113007,23.738358 C146.28383,24.6284732 148.805208,25.7252864 148.805208,28.8424819 L148.805208,28.9010264 C148.805208,32.4316177 146.165641,34.2715875 142.251059,34.2715875 C139.554188,34.2715875 136.887163,33.499756 134.66305,31.8975486" id="Fill-11" fill="#221F20" sketch:type="MSShapeGroup"></path><path d="M150.462727,25.9632877 L150.462727,25.9047432 C150.462727,21.2152098 153.812626,17.5065955 158.556922,17.5065955 C164.099894,17.5065955 166.649923,21.5712559 166.649923,26.2894641 C166.649923,26.6455102 166.649923,27.0612956 166.621271,27.4460165 L155.887509,27.4460165 C156.332809,29.1975722 157.607824,30.0876874 159.356791,30.0876874 C160.68911,30.0876874 161.757591,29.5834879 162.914416,28.4556103 L166.026742,31.0363472 C164.485502,32.9969903 162.262583,34.3016961 159.06072,34.3016961 C154.019159,34.3016961 150.462727,30.947933 150.462727,25.9632877 L150.462727,25.9632877 Z M161.373177,24.5689729 C161.16545,22.7875476 160.128008,21.6608649 158.585574,21.6608649 C157.102832,21.6608649 156.09643,22.8186121 155.799165,24.5689729 L161.373177,24.5689729 Z" id="Fill-13" fill="#221F20" sketch:type="MSShapeGroup"></path><g id="Group-17"><mask id="mask-2" sketch:name="Clip 16" fill="white"><use xlink:href="#path-1"></use></mask><g id="Clip-16"></g><path d="M169.048813,17.8634779 L174.681322,17.8634779 L174.681322,21.0977624 C175.600575,18.9017466 177.083317,17.4775622 179.751536,17.5970407 L179.751536,23.5303458 L179.27639,23.5303458 C176.341946,23.5303458 174.681322,25.2209674 174.681322,28.9307766 L174.681322,33.9154219 L169.048813,33.9154219 L169.048813,17.8634779 Z" id="Fill-15" fill="#221F20" sketch:type="MSShapeGroup" mask="url(#mask-2)"></path></g><g id="Group-20"><mask id="mask-4" sketch:name="Clip 19" fill="white"><use xlink:href="#path-3"></use></mask><g id="Clip-19"></g><path d="M12.953219,0.464413148 L2.29466845,8.46589206 C0.795212869,9.6785994 0.00131321747,11.1123421 0.000119383406,12.6106032 L0.000119383406,19.0791722 L0.000119383406,27.4366972 L12.953219,27.4366972 L12.953219,0.464413148 Z" id="Fill-18" fill="#2172BA" sketch:type="MSShapeGroup" mask="url(#mask-4)"></path></g><path d="M25.8690709,8.44808975 L15.2343971,0.465727412 L15.2343971,27.4368167 L28.1874967,27.4368167 L28.1874967,19.0792917 L28.1874967,12.6107227 C28.1863028,11.026437 27.4329935,9.66796581 25.8690709,8.44808975" id="Fill-21" fill="#2172BA" sketch:type="MSShapeGroup"></path><g id="Group-25"><mask id="mask-6" sketch:name="Clip 24" fill="white"><use xlink:href="#path-5"></use></mask><g id="Clip-24"></g><path d="M15.2341583,27.4369362 L15.2341583,33.6546002 C15.8155555,34.0369316 16.1701242,34.6857002 16.1701242,35.3834549 C16.1701242,36.5280595 15.2389337,37.461187 14.0940468,37.461187 C12.9479661,37.461187 12.0167755,36.5280595 12.0167755,35.3834549 C12.0167755,34.6857002 12.3713442,34.0381264 12.9527414,33.655795 L12.9527414,27.4369362 L-0.000358150219,27.4369362 L-0.000358150219,39.1147703 C-0.000358150219,43.3108572 6.18967146,46.5965174 14.0940468,46.5965174 C21.9972283,46.5965174 28.1872579,43.3108572 28.1872579,39.1147703 L28.1872579,27.4369362 L15.2341583,27.4369362 Z" id="Fill-23" fill="#B9B4A6" sketch:type="MSShapeGroup" mask="url(#mask-6)"></path></g></g></g></g></g></svg>